<svg width="265" height="127" viewBox="0 0 265 127" fill="none" xmlns="http://www.w3.org/2000/svg">
<path d="M97.4055 28.9788L100.179 30.1222L97.4055 28.9788ZM154.265 123.31L154.268 126.31L154.265 123.31ZM183.893 10.3248L186.694 11.3986L186.694 11.3986L183.893 10.3248ZM256.866 69.144C258.499 69.4275 260.052 68.3339 260.335 66.7015L264.954 40.0996C265.238 38.4671 264.144 36.914 262.512 36.6305C260.88 36.3471 259.326 37.4406 259.043 39.073L254.937 62.7192L231.291 58.6131C229.658 58.3297 228.105 59.4232 227.822 61.0556C227.538 62.6881 228.632 64.2412 230.264 64.5247L256.866 69.144ZM0.270881 72.3758C12.3313 85.7943 22.9282 94.3192 32.5963 98.2689C42.4722 102.303 51.3387 101.534 59.4012 96.5684C67.2416 91.7396 74.0891 83.0868 80.5842 71.8698C87.1091 60.6012 93.4668 46.4035 100.179 30.1222L94.6319 27.8353C87.9369 44.075 81.7045 57.9613 75.3918 68.8633C69.0493 79.8168 62.8118 87.4212 56.2547 91.4596C49.9197 95.3612 43.0764 96.069 34.8654 92.7145C26.4464 89.2751 16.5791 81.5447 4.73332 68.365L0.270881 72.3758ZM100.179 30.1222C101.836 26.1035 103.257 23.0162 104.476 20.7338C105.726 18.3946 106.655 17.1116 107.272 16.5139C107.938 15.8686 107.381 16.7413 106.336 16.2216C106.042 16.0754 106.009 15.9328 106.147 16.1439C106.276 16.3399 106.461 16.7025 106.676 17.3005C107.58 19.8126 108.292 24.3578 109.007 30.5967C109.357 33.6571 109.7 37.0326 110.072 40.6575C110.444 44.2749 110.843 48.1296 111.303 52.1151C113.134 67.9817 115.96 86.2598 122.083 100.621C128.208 114.984 138.072 126.323 154.268 126.31L154.263 120.31C141.649 120.32 133.352 111.75 127.603 98.2673C121.853 84.7826 119.093 67.2796 117.263 51.4273C116.808 47.4831 116.412 43.6619 116.041 40.0448C115.671 36.4352 115.323 33.0176 114.968 29.9136C114.27 23.8239 113.504 18.5558 112.322 15.2695C112.016 14.4179 111.642 13.5819 111.164 12.8536C110.697 12.1404 110.01 11.3479 109.009 10.8495C106.548 9.62564 104.355 10.9853 103.096 12.2057C101.788 13.4737 100.504 15.435 99.1839 17.9064C97.8332 20.4344 96.327 23.7238 94.6319 27.8353L100.179 30.1222ZM154.268 126.31C161.815 126.304 167.992 124.964 172.965 122.395C177.97 119.81 181.596 116.061 184.131 111.514C189.112 102.577 189.822 90.6481 189.167 78.4173C188.515 66.2194 186.404 52.6953 185.273 40.935C184.109 28.8254 183.968 18.51 186.694 11.3986L181.091 9.25091C177.797 17.8432 178.145 29.497 179.301 41.5093C180.489 53.8708 182.528 66.6212 183.176 78.7378C183.823 90.8216 182.984 101.247 178.89 108.592C176.887 112.186 174.093 115.059 170.211 117.064C166.298 119.086 161.121 120.304 154.263 120.31L154.268 126.31ZM186.694 11.3986C187.947 8.12911 189.569 6.98389 191.148 6.6385C192.981 6.23755 195.607 6.71599 199.102 8.4812C206.051 11.9913 214.555 19.6126 222.968 28.5366C231.308 37.383 239.298 47.2258 245.217 54.8783C248.173 58.6999 250.605 61.9651 252.296 64.2729C253.141 65.4266 253.801 66.3404 254.249 66.9644C254.472 67.2763 254.643 67.5157 254.757 67.6763C254.814 67.7566 254.857 67.8172 254.885 67.8573C254.9 67.8773 254.91 67.8923 254.917 67.902C254.92 67.9068 254.923 67.9104 254.924 67.9126C254.925 67.9137 254.926 67.9144 254.926 67.915C254.926 67.9153 254.926 67.9153 257.379 66.1882C259.832 64.4611 259.832 64.4605 259.831 64.4595C259.831 64.4587 259.83 64.4574 259.829 64.4559C259.826 64.4528 259.823 64.4484 259.819 64.4427C259.811 64.4313 259.8 64.4146 259.784 64.3929C259.753 64.3493 259.708 64.2852 259.648 64.2013C259.529 64.0336 259.353 63.7868 259.124 63.4672C258.666 62.8281 257.994 61.8977 257.135 60.7264C255.419 58.3842 252.956 55.0768 249.963 51.2074C243.985 43.4781 235.861 33.4662 227.334 24.4208C218.88 15.453 209.765 7.14546 201.807 3.12562C197.848 1.12586 193.698 -0.0609638 189.866 0.777047C185.78 1.67062 182.848 4.66857 181.091 9.25091L186.694 11.3986Z" fill="url(#paint0_linear_15_123)"/>
<defs>
<linearGradient id="paint0_linear_15_123" x1="237.89" y1="63.7226" x2="37.8648" y2="55.6422" gradientUnits="userSpaceOnUse">
<stop stop-color="white" stop-opacity="0.82"/>
<stop offset="1" stop-color="#07FFF8" stop-opacity="0"/>
</linearGradient>
</defs>
</svg>
