<svg width="1920" height="241" viewBox="0 0 1920 241" fill="none" xmlns="http://www.w3.org/2000/svg">
<path fill-rule="evenodd" clip-rule="evenodd" d="M0 98.7169L32 84.3897C64 70.0626 128 41.9024 192 46.3487C256 51.2891 320 89.3301 384 127.371C448 164.918 512 202.959 576 174.799C640 146.145 704 51.2891 768 36.962C832 22.6349 896 89.3301 960 103.657C1024 117.49 1088 79.9434 1152 46.3487C1216 13.2482 1280 -14.9121 1344 8.8018C1408 32.5157 1472 108.104 1536 155.531C1600 202.959 1664 222.227 1728 193.572C1792 164.918 1856 89.3301 1888 51.2891L1920 13.2481V241H1888C1856 241 1792 241 1728 241C1664 241 1600 241 1536 241C1472 241 1408 241 1344 241C1280 241 1216 241 1152 241C1088 241 1024 241 960 241C896 241 832 241 768 241C704 241 640 241 576 241C512 241 448 241 384 241C320 241 256 241 192 241C128 241 64 241 32 241H0V98.7169Z" fill="url(#paint0_linear_14_22)"/>
<defs>
<linearGradient id="paint0_linear_14_22" x1="960" y1="0" x2="960" y2="241" gradientUnits="userSpaceOnUse">
<stop stop-color="white" stop-opacity="0.76"/>
<stop offset="1" stop-color="#0ABBB6" stop-opacity="0.15"/>
</linearGradient>
</defs>
</svg>
