<svg width="307" height="205" viewBox="0 0 307 205" fill="none" xmlns="http://www.w3.org/2000/svg">
<path d="M0.685606 52.8847C0.293283 53.6143 0.566722 54.5238 1.29636 54.9161C2.026 55.3085 2.93553 55.035 3.32786 54.3054L0.685606 52.8847ZM266.528 202.851C266.67 203.667 267.446 204.214 268.262 204.073L281.565 201.772C282.381 201.631 282.928 200.855 282.787 200.038C282.646 199.222 281.87 198.675 281.053 198.816L269.229 200.861L267.184 189.037C267.042 188.22 266.266 187.673 265.45 187.814C264.634 187.956 264.086 188.732 264.228 189.548L266.528 202.851ZM3.32786 54.3054C9.51455 42.7996 20.5746 33.0337 35.0563 25.2061C49.5294 17.383 67.3333 11.5443 86.8625 7.8518C125.929 0.465078 171.698 1.70425 211.091 12.6253C250.529 23.5584 283.261 44.0961 296.783 75.0399C310.269 105.902 304.882 147.692 266.781 201.731L269.232 203.459C307.632 148.998 313.615 106.066 299.532 73.8387C285.485 41.6929 251.711 20.7729 211.893 9.73432C172.031 -1.31637 125.797 -2.56305 86.3051 4.90403C66.5549 8.63838 48.4403 14.5615 33.6297 22.5669C18.8277 30.5678 7.23898 40.697 0.685606 52.8847L3.32786 54.3054Z" fill="url(#paint0_linear_8_34)"/>
<defs>
<linearGradient id="paint0_linear_8_34" x1="280.086" y1="204.386" x2="132.613" y2="132.9" gradientUnits="userSpaceOnUse">
<stop stop-color="#0ABBB6"/>
<stop offset="1" stop-color="white" stop-opacity="0.29"/>
</linearGradient>
</defs>
</svg>
