<svg width="1920" height="342" viewBox="0 0 1920 342" fill="none" xmlns="http://www.w3.org/2000/svg">
<path fill-rule="evenodd" clip-rule="evenodd" d="M0 48.8571L46.4 73.2857C91.2 97.7143 182.4 146.571 273.6 171C366.4 195.429 457.6 195.429 548.8 171C640 146.571 731.2 97.7143 822.4 105.857C913.6 114 1006.4 179.143 1097.6 179.143C1188.8 179.143 1280 114 1371.2 122.143C1462.4 130.286 1553.6 211.714 1646.4 203.571C1737.6 195.429 1828.8 97.7143 1873.6 48.8571L1920 0V342H1873.6C1828.8 342 1737.6 342 1646.4 342C1553.6 342 1462.4 342 1371.2 342C1280 342 1188.8 342 1097.6 342C1006.4 342 913.6 342 822.4 342C731.2 342 640 342 548.8 342C457.6 342 366.4 342 273.6 342C182.4 342 91.2 342 46.4 342H0V48.8571Z" fill="url(#paint0_linear_5_18)"/>
<defs>
<linearGradient id="paint0_linear_5_18" x1="960" y1="0" x2="960" y2="342" gradientUnits="userSpaceOnUse">
<stop stop-color="white" stop-opacity="0.76"/>
<stop offset="1" stop-color="#0ABBB6" stop-opacity="0.15"/>
</linearGradient>
</defs>
</svg>
