<svg width="1920" height="488" viewBox="0 0 1920 488" fill="none" xmlns="http://www.w3.org/2000/svg">
<path fill-rule="evenodd" clip-rule="evenodd" d="M0 199.816L32 170.816C64 141.816 128 84.816 192 93.816C256 103.816 320 180.816 384 257.816C448 333.816 512 410.816 576 353.816C640 295.816 704 103.816 768 74.816C832 45.816 896 180.816 960 209.816C1024 237.816 1088 161.816 1152 93.816C1216 26.816 1280 -30.184 1344 17.816C1408 65.816 1472 218.816 1536 314.816C1600 410.816 1664 449.816 1728 391.816C1792 333.816 1856 180.816 1888 103.816L1920 26.816V487.816H1888C1856 487.816 1792 487.816 1728 487.816C1664 487.816 1600 487.816 1536 487.816C1472 487.816 1408 487.816 1344 487.816C1280 487.816 1216 487.816 1152 487.816C1088 487.816 1024 487.816 960 487.816C896 487.816 832 487.816 768 487.816C704 487.816 640 487.816 576 487.816C512 487.816 448 487.816 384 487.816C320 487.816 256 487.816 192 487.816C128 487.816 64 487.816 32 487.816H0V199.816Z" fill="url(#paint0_linear_5_35)"/>
<defs>
<linearGradient id="paint0_linear_5_35" x1="960" y1="0" x2="960" y2="487.816" gradientUnits="userSpaceOnUse">
<stop offset="0.0364583" stop-color="#E0E0E0" stop-opacity="0.76"/>
<stop offset="0.9375" stop-color="#00B4AE" stop-opacity="0.15"/>
</linearGradient>
</defs>
</svg>
