<svg width="126" height="40" viewBox="0 0 126 40" fill="none" xmlns="http://www.w3.org/2000/svg">
<path d="M117.46 4H120.86C122.1 4 123.027 4.28667 123.64 4.86C124.253 5.42 124.56 6.30667 124.56 7.52C124.56 8.18667 124.433 8.8 124.18 9.36C123.94 9.90667 123.633 10.3067 123.26 10.56C123.78 10.84 124.207 11.26 124.54 11.82C124.887 12.38 125.06 13.02 125.06 13.74C125.06 14.9667 124.753 15.9867 124.14 16.8C123.54 17.6 122.347 18 120.56 18H117.46V4ZM120.48 9.86C121.28 9.86 121.9 9.66 122.34 9.26C122.78 8.84667 123 8.25333 123 7.48C123 6.72 122.787 6.17333 122.36 5.84C121.933 5.49333 121.307 5.32 120.48 5.32H119.22V9.86H120.48ZM120.46 16.68C121.433 16.68 122.16 16.4533 122.64 16C123.133 15.5333 123.38 14.8 123.38 13.8C123.38 12.9067 123.093 12.2533 122.52 11.84C121.947 11.4267 121.267 11.22 120.48 11.22H119.22V16.68H120.46Z" fill="white"/>
<path d="M109.04 4L112.4 18L110.66 18L107.88 5.6L105.12 18L103.38 18L106.68 4L109.04 4Z" fill="white"/>
<path d="M92.46 18V4H94.22V16.68H98.32V18H92.46Z" fill="white"/>
<path d="M4.68 18C3.46667 18 2.52667 17.6933 1.86 17.08C1.19333 16.4667 0.86 15.5667 0.86 14.38V7.60001C0.86 6.42668 1.22 5.53335 1.94 4.92001C2.66 4.30668 3.64 4.00001 4.88 4.00001H7.82V5.34001H4.68C4.06667 5.34001 3.56667 5.52002 3.18 5.88002C2.80667 6.22668 2.62 6.69335 2.62 7.28001V14.74C2.62 15.34 2.8 15.8133 3.16 16.16C3.52 16.5067 4 16.68 4.6 16.68H6.46V11.18H4.66V9.86002H8.22V18H4.68ZM13.6788 4.00001H17.3788C18.6054 4.00001 19.5121 4.31335 20.0988 4.94001C20.6854 5.55335 20.9788 6.48001 20.9788 7.72002C20.9788 8.65335 20.7988 9.46668 20.4388 10.16C20.0788 10.8533 19.5654 11.3333 18.8988 11.6L21.6788 18H19.9588L17.2388 11.86H15.3988V18H13.6788V4.00001ZM16.8588 10.54C17.6188 10.54 18.2054 10.28 18.6188 9.76001C19.0454 9.22668 19.2588 8.54668 19.2588 7.72002C19.2588 6.93335 19.0521 6.34001 18.6388 5.94001C18.2388 5.52668 17.6454 5.32002 16.8588 5.32002H15.4388V10.54H16.8588ZM25.482 18L28.642 4.00001H31.302L34.342 18H32.702L31.722 13.88H28.082L27.182 18H25.482ZM28.382 12.52H31.422L29.982 5.32002H29.842L28.382 12.52ZM39.21 4.00001H42.75C45.19 4.00001 46.41 5.24001 46.41 7.72002C46.41 9.01335 46.0567 10.0267 45.35 10.76C44.6567 11.48 43.6633 11.84 42.37 11.84H40.97V18H39.21V4.00001ZM42.25 10.52C43.01 10.52 43.5967 10.26 44.01 9.74001C44.4367 9.22001 44.65 8.54668 44.65 7.72002C44.65 6.93335 44.4433 6.34001 44.03 5.94001C43.63 5.52668 43.0367 5.32002 42.25 5.32002H40.97V10.52H42.25ZM51.2725 18V4.00001H53.0325V9.92001H57.0125V4.00001H58.7725V18H57.0125V11.24H53.0325V18H51.2725ZM64.7022 18V4.00001H66.4622V18H64.7022ZM75.6097 18C74.3964 18 73.4564 17.6933 72.7897 17.08C72.123 16.4667 71.7897 15.5667 71.7897 14.38V7.62001C71.7897 6.43335 72.123 5.53335 72.7897 4.92001C73.4564 4.30668 74.3964 4.00001 75.6097 4.00001H78.2897V5.32002H75.6097C74.9964 5.32002 74.4964 5.50001 74.1097 5.86001C73.7364 6.20668 73.5497 6.67335 73.5497 7.26002V14.74C73.5497 15.3267 73.7364 15.8 74.1097 16.16C74.4964 16.5067 74.9964 16.68 75.6097 16.68H78.2897V18H75.6097Z" fill="white"/>
<path d="M46.84 36C46 36 45.32 35.7533 44.8 35.26C44.28 34.7667 44.02 34.1067 44.02 33.28V28.3C44.02 27.7267 44.1733 27.24 44.48 26.84C44.8 26.44 45.1933 26.1667 45.66 26.02L48.34 25.08V22H49.94V36H46.84ZM48.34 34.8V26.4L46.56 27C46.2133 27.1067 45.9667 27.28 45.82 27.52C45.6867 27.7467 45.62 28.1133 45.62 28.62V33.28C45.62 33.76 45.76 34.1333 46.04 34.4C46.32 34.6667 46.7 34.8 47.18 34.8H48.34ZM57.4245 36C56.6912 36 56.1045 35.78 55.6645 35.34C55.2379 34.9 55.0245 34.3067 55.0245 33.56V28.24C55.0245 27.3733 55.2645 26.6933 55.7445 26.2C56.2245 25.7067 56.9379 25.46 57.8845 25.46C58.8312 25.46 59.5379 25.7067 60.0045 26.2C60.4845 26.6933 60.7245 27.3733 60.7245 28.24V29.16C60.7245 29.72 60.5645 30.1467 60.2445 30.44C59.9245 30.72 59.5045 30.9333 58.9845 31.08L56.6245 31.74V33.7C56.6245 34.02 56.7179 34.2867 56.9045 34.5C57.1045 34.7 57.3579 34.8 57.6645 34.8H59.8245V36H57.4245ZM57.8445 30.14C58.2845 30.02 58.5779 29.9333 58.7245 29.88C58.8845 29.8133 58.9912 29.72 59.0445 29.6C59.0979 29.48 59.1245 29.28 59.1245 29V27.9C59.1245 27.4733 59.0112 27.16 58.7845 26.96C58.5712 26.76 58.2712 26.66 57.8845 26.66C57.5112 26.66 57.2045 26.7667 56.9645 26.98C56.7379 27.1933 56.6245 27.5 56.6245 27.9V30.48L57.8445 30.14ZM64.7172 34.8H66.4172C66.9905 34.8 67.4039 34.6467 67.6572 34.34C67.9239 34.02 68.0572 33.6067 68.0572 33.1C68.0572 32.7 67.9372 32.36 67.6972 32.08C67.4572 31.8 67.0972 31.4733 66.6172 31.1C66.2039 30.7667 65.8705 30.48 65.6172 30.24C65.3772 29.9867 65.1639 29.68 64.9772 29.32C64.8039 28.9467 64.7172 28.52 64.7172 28.04C64.7172 27.3333 64.9505 26.7533 65.4172 26.3C65.8972 25.8333 66.5372 25.6 67.3372 25.6H69.0772V26.8H67.6372C66.6905 26.8 66.2172 27.2467 66.2172 28.14C66.2172 28.4867 66.3239 28.7867 66.5372 29.04C66.7505 29.2933 67.0839 29.5933 67.5372 29.94C67.9505 30.26 68.2905 30.5533 68.5572 30.82C68.8239 31.0733 69.0505 31.4 69.2372 31.8C69.4239 32.1867 69.5172 32.6467 69.5172 33.18C69.5172 34.1267 69.2639 34.8333 68.7572 35.3C68.2639 35.7667 67.5639 36 66.6572 36H64.7172V34.8ZM74.3133 23.9V22.3H75.9133V23.9H74.3133ZM74.3133 36V25.6H75.9133V36H74.3133ZM82.1572 38H84.2172C84.5239 38 84.7639 37.8933 84.9372 37.68C85.1239 37.48 85.2172 37.22 85.2172 36.9V36.02H83.5572C82.8239 36.02 82.2039 35.78 81.6972 35.3C81.1905 34.82 80.9372 34.22 80.9372 33.5V28.12C80.9372 27.4 81.1905 26.8 81.6972 26.32C82.2172 25.84 82.8439 25.6 83.5772 25.6H86.8372V36.76C86.8372 37.5067 86.6305 38.1 86.2172 38.54C85.8172 38.98 85.2505 39.2 84.5172 39.2H82.1572V38ZM85.2372 34.82V26.8H83.8972C83.5239 26.8 83.2039 26.9267 82.9372 27.18C82.6705 27.4333 82.5372 27.7467 82.5372 28.12V33.5C82.5372 33.8733 82.6705 34.1867 82.9372 34.44C83.2039 34.6933 83.5239 34.82 83.8972 34.82H85.2372Z" fill="white"/>
<path d="M92.032 25.6H93.272L93.452 26.18L94.272 25.94C94.832 25.7667 95.272 25.6467 95.592 25.58C95.9254 25.5 96.2387 25.46 96.532 25.46C97.012 25.46 97.3654 25.6267 97.592 25.96C97.8187 26.2933 97.932 26.7267 97.932 27.26V36H96.332V27.78C96.332 27.3933 96.3054 27.1267 96.252 26.98C96.1987 26.82 96.0654 26.74 95.852 26.74C95.7454 26.74 95.0054 26.9533 93.632 27.38V36H92.032V25.6Z" fill="#E5E6E6"/>
</svg>
