<svg width="567" height="162" viewBox="0 0 567 162" fill="none" xmlns="http://www.w3.org/2000/svg">
<path d="M509.429 156.248C509.219 157.049 509.699 157.869 510.5 158.078L523.561 161.496C524.362 161.705 525.182 161.226 525.391 160.424C525.601 159.623 525.121 158.803 524.32 158.593L512.711 155.556L515.748 143.947C515.958 143.145 515.478 142.325 514.677 142.116C513.875 141.906 513.056 142.386 512.846 143.187L509.429 156.248ZM3.23498 77.393C15.1341 60.1315 35.6948 46.0989 62.3041 35.0956C88.8927 24.1009 121.383 16.1876 156.959 11.0786C228.111 0.860713 311.408 1.88731 384.075 11.7616C420.405 16.6982 454.044 23.842 482.158 32.8815C510.302 41.931 532.78 52.8404 546.899 65.2383C560.975 77.5973 566.543 91.2135 561.584 105.961C556.547 120.942 540.532 137.536 510.122 155.333L511.638 157.922C542.19 140.042 559.028 122.975 564.428 106.917C569.907 90.6245 563.499 75.8212 548.879 62.984C534.303 50.1858 511.368 39.1224 483.076 30.0255C454.753 20.9187 420.934 13.7425 384.479 8.78887C311.575 -1.1176 227.996 -2.15352 156.533 8.1091C120.802 13.2404 88.0498 21.2031 61.1577 32.3233C34.2864 43.4349 13.1278 57.7561 0.764983 75.6903L3.23498 77.393Z" fill="url(#paint0_linear_2_31)"/>
<defs>
<linearGradient id="paint0_linear_2_31" x1="256.46" y1="116.465" x2="62.8945" y2="82.0953" gradientUnits="userSpaceOnUse">
<stop stop-color="#0ABBB6" stop-opacity="0.68"/>
<stop offset="1" stop-color="white" stop-opacity="0"/>
</linearGradient>
</defs>
</svg>
